<?xml version="1.0" encoding="UTF-8"?>
<!DOCTYPE svg PUBLIC "-//W3C//DTD SVG 1.1//EN" "http://www.w3.org/Graphics/SVG/1.1/DTD/svg11.dtd">
<svg version="1.2" width="210mm" height="210mm" viewBox="0 0 21000 21000" preserveAspectRatio="xMidYMid" fill-rule="evenodd" stroke-width="28.222" stroke-linejoin="round" xmlns="http://www.w3.org/2000/svg" xmlns:ooo="http://xml.openoffice.org/svg/export" xmlns:xlink="http://www.w3.org/1999/xlink" xmlns:presentation="http://sun.com/xmlns/staroffice/presentation" xmlns:smil="http://www.w3.org/2001/SMIL20/" xmlns:anim="urn:oasis:names:tc:opendocument:xmlns:animation:1.0" xml:space="preserve">
 <defs class="ClipPathGroup">
  <clipPath id="presentation_clip_path" clipPathUnits="userSpaceOnUse">
   <rect x="0" y="0" width="21000" height="21000"/>
  </clipPath>
  <clipPath id="presentation_clip_path_shrink" clipPathUnits="userSpaceOnUse">
   <rect x="21" y="21" width="20958" height="20958"/>
  </clipPath>
 </defs>
 <defs class="TextShapeIndex">
  <g ooo:slide="id1" ooo:id-list="id3 id4 id5 id6 id7 id8 id9 id10 id11 id12 id13 id14 id15 id16 id17 id18 id19 id20 id21 id22 id23 id24 id25 id26 id27 id28 id29 id30 id31 id32 id33 id34 id35 id36 id37 id38"/>
 </defs>
 <defs class="EmbeddedBulletChars">
  <g id="bullet-char-template-57356" transform="scale(0.00048828125,-0.00048828125)">
   <path d="M 580,1141 L 1163,571 580,0 -4,571 580,1141 Z"/>
  </g>
  <g id="bullet-char-template-57354" transform="scale(0.00048828125,-0.00048828125)">
   <path d="M 8,1128 L 1137,1128 1137,0 8,0 8,1128 Z"/>
  </g>
  <g id="bullet-char-template-10146" transform="scale(0.00048828125,-0.00048828125)">
   <path d="M 174,0 L 602,739 174,1481 1456,739 174,0 Z M 1358,739 L 309,1346 659,739 1358,739 Z"/>
  </g>
  <g id="bullet-char-template-10132" transform="scale(0.00048828125,-0.00048828125)">
   <path d="M 2015,739 L 1276,0 717,0 1260,543 174,543 174,936 1260,936 717,1481 1274,1481 2015,739 Z"/>
  </g>
  <g id="bullet-char-template-10007" transform="scale(0.00048828125,-0.00048828125)">
   <path d="M 0,-2 C -7,14 -16,27 -25,37 L 356,567 C 262,823 215,952 215,954 215,979 228,992 255,992 264,992 276,990 289,987 310,991 331,999 354,1012 L 381,999 492,748 772,1049 836,1024 860,1049 C 881,1039 901,1025 922,1006 886,937 835,863 770,784 769,783 710,716 594,584 L 774,223 C 774,196 753,168 711,139 L 727,119 C 717,90 699,76 672,76 641,76 570,178 457,381 L 164,-76 C 142,-110 111,-127 72,-127 30,-127 9,-110 8,-76 1,-67 -2,-52 -2,-32 -2,-23 -1,-13 0,-2 Z"/>
  </g>
  <g id="bullet-char-template-10004" transform="scale(0.00048828125,-0.00048828125)">
   <path d="M 285,-33 C 182,-33 111,30 74,156 52,228 41,333 41,471 41,549 55,616 82,672 116,743 169,778 240,778 293,778 328,747 346,684 L 369,508 C 377,444 397,411 428,410 L 1163,1116 C 1174,1127 1196,1133 1229,1133 1271,1133 1292,1118 1292,1087 L 1292,965 C 1292,929 1282,901 1262,881 L 442,47 C 390,-6 338,-33 285,-33 Z"/>
  </g>
  <g id="bullet-char-template-9679" transform="scale(0.00048828125,-0.00048828125)">
   <path d="M 813,0 C 632,0 489,54 383,161 276,268 223,411 223,592 223,773 276,916 383,1023 489,1130 632,1184 813,1184 992,1184 1136,1130 1245,1023 1353,916 1407,772 1407,592 1407,412 1353,268 1245,161 1136,54 992,0 813,0 Z"/>
  </g>
  <g id="bullet-char-template-8226" transform="scale(0.00048828125,-0.00048828125)">
   <path d="M 346,457 C 273,457 209,483 155,535 101,586 74,649 74,723 74,796 101,859 155,911 209,963 273,989 346,989 419,989 480,963 531,910 582,859 608,796 608,723 608,648 583,586 532,535 482,483 420,457 346,457 Z"/>
  </g>
  <g id="bullet-char-template-8211" transform="scale(0.00048828125,-0.00048828125)">
   <path d="M -4,459 L 1135,459 1135,606 -4,606 -4,459 Z"/>
  </g>
  <g id="bullet-char-template-61548" transform="scale(0.00048828125,-0.00048828125)">
   <path d="M 173,740 C 173,903 231,1043 346,1159 462,1274 601,1332 765,1332 928,1332 1067,1274 1183,1159 1299,1043 1357,903 1357,740 1357,577 1299,437 1183,322 1067,206 928,148 765,148 601,148 462,206 346,322 231,437 173,577 173,740 Z"/>
  </g>
 </defs>
 <g>
  <g id="id2" class="Master_Slide">
   <g id="bg-id2" class="Background"/>
   <g id="bo-id2" class="BackgroundObjects"/>
  </g>
 </g>
 <g class="SlideGroup">
  <g>
   <g id="container-id1">
    <g id="id1" class="Slide" clip-path="url(#presentation_clip_path)">
     <g class="Page">
      <g class="Group">
       <g class="com.sun.star.drawing.CustomShape">
        <g id="id3">
         <rect class="BoundingBox" stroke="none" fill="none" x="5787" y="2999" width="9215" height="14004"/>
         <path fill="rgb(233,51,41)" stroke="none" d="M 7323,3000 L 7323,3000 C 7054,3000 6789,3071 6556,3206 6322,3340 6128,3534 5994,3768 5859,4001 5788,4266 5788,4535 L 5788,15465 5788,15466 C 5788,15735 5859,16000 5994,16233 6128,16467 6322,16661 6556,16795 6789,16930 7054,17001 7323,17001 L 13464,17001 13465,17001 C 13734,17001 13999,16930 14232,16795 14466,16661 14660,16467 14794,16233 14929,16000 15000,15735 15000,15466 L 15000,4535 15000,4535 15000,4535 C 15000,4266 14929,4001 14794,3768 14660,3534 14466,3340 14232,3206 13999,3071 13734,3000 13465,3000 L 7323,3000 Z"/>
         <path fill="none" stroke="rgb(233,51,41)" d="M 7323,3000 L 7323,3000 C 7054,3000 6789,3071 6556,3206 6322,3340 6128,3534 5994,3768 5859,4001 5788,4266 5788,4535 L 5788,15465 5788,15466 C 5788,15735 5859,16000 5994,16233 6128,16467 6322,16661 6556,16795 6789,16930 7054,17001 7323,17001 L 13464,17001 13465,17001 C 13734,17001 13999,16930 14232,16795 14466,16661 14660,16467 14794,16233 14929,16000 15000,15735 15000,15466 L 15000,4535 15000,4535 15000,4535 C 15000,4266 14929,4001 14794,3768 14660,3534 14466,3340 14232,3206 13999,3071 13734,3000 13465,3000 L 7323,3000 Z"/>
        </g>
       </g>
       <g class="com.sun.star.drawing.CustomShape">
        <g id="id4">
         <rect class="BoundingBox" stroke="none" fill="none" x="5499" y="2999" width="1809" height="14003"/>
         <path fill="rgb(34,34,34)" stroke="none" d="M 6403,17000 L 5500,17000 5500,3000 7306,3000 7306,17000 6403,17000 Z"/>
         <path fill="none" stroke="rgb(34,34,34)" d="M 6403,17000 L 5500,17000 5500,3000 7306,3000 7306,17000 6403,17000 Z"/>
        </g>
       </g>
      </g>
      <g class="com.sun.star.drawing.CustomShape">
       <g id="id5">
        <rect class="BoundingBox" stroke="none" fill="none" x="11499" y="6999" width="3475" height="3475"/>
        <path fill="rgb(218,36,26)" stroke="none" d="M 14000,9500 L 13027,10472 11500,8945 13445,7000 14972,8528 14000,9500 Z"/>
        <path fill="none" stroke="rgb(218,36,26)" d="M 14000,9500 L 13027,10472 11500,8945 13445,7000 14972,8528 14000,9500 Z"/>
       </g>
      </g>
      <g class="com.sun.star.drawing.CustomShape">
       <g id="id6">
        <rect class="BoundingBox" stroke="none" fill="none" x="11499" y="4499" width="3503" height="4503"/>
        <path fill="rgb(218,36,26)" stroke="none" d="M 13250,9000 L 11500,9000 11500,4500 15000,4500 15000,9000 13250,9000 Z"/>
        <path fill="none" stroke="rgb(218,36,26)" d="M 13250,9000 L 11500,9000 11500,4500 15000,4500 15000,9000 13250,9000 Z"/>
       </g>
      </g>
      <g class="com.sun.star.drawing.CustomShape">
       <g id="id7">
        <rect class="BoundingBox" stroke="none" fill="none" x="11498" y="8998" width="3504" height="3504"/>
        <path fill="rgb(218,36,26)" stroke="none" d="M 15000,12500 L 11499,8999 15000,8999 15000,12500 15000,12500 Z"/>
        <path fill="none" stroke="rgb(218,36,26)" d="M 15000,12500 L 11499,8999 15000,8999 15000,12500 15000,12500 Z"/>
       </g>
      </g>
      <g class="com.sun.star.drawing.CustomShape">
       <g id="id8">
        <rect class="BoundingBox" stroke="none" fill="none" x="13496" y="2999" width="1506" height="1516"/>
        <path fill="rgb(218,36,26)" stroke="none" d="M 13497,3000 L 13573,3002 13650,3007 13726,3017 13801,3031 13876,3048 13949,3069 14022,3094 14093,3122 14162,3154 14230,3190 14296,3228 14360,3271 14421,3316 14480,3365 14537,3416 14591,3470 14642,3527 14690,3587 14735,3649 14777,3713 14815,3779 14850,3847 14882,3917 14910,3988 14934,4060 14955,4134 14971,4209 14984,4284 14993,4360 14999,4436 15000,4513 13500,4500 13497,3000 Z"/>
        <path fill="none" stroke="rgb(218,36,26)" d="M 13497,3000 L 13573,3002 13650,3007 13726,3017 13801,3031 13876,3048 13949,3069 14022,3094 14093,3122 14162,3154 14230,3190 14296,3228 14360,3271 14421,3316 14480,3365 14537,3416 14591,3470 14642,3527 14690,3587 14735,3649 14777,3713 14815,3779 14850,3847 14882,3917 14910,3988 14934,4060 14955,4134 14971,4209 14984,4284 14993,4360 14999,4436 15000,4513 13500,4500 13497,3000 Z"/>
       </g>
      </g>
      <g class="Group">
       <g class="com.sun.star.drawing.CustomShape">
        <g id="id9">
         <rect class="BoundingBox" stroke="none" fill="none" x="12498" y="4498" width="1004" height="4504"/>
         <path fill="rgb(68,68,68)" stroke="none" d="M 13500,9000 L 12499,4499 13500,4499 13500,9000 13500,9000 Z"/>
         <path fill="none" stroke="rgb(68,68,68)" d="M 13500,9000 L 12499,4499 13500,4499 13500,9000 13500,9000 Z"/>
        </g>
       </g>
       <g class="com.sun.star.drawing.CustomShape">
        <g id="id10">
         <rect class="BoundingBox" stroke="none" fill="none" x="11499" y="4498" width="1004" height="4504"/>
         <path fill="rgb(68,68,68)" stroke="none" d="M 11500,9000 L 12501,4499 11500,4499 11500,9000 11500,9000 Z"/>
         <path fill="none" stroke="rgb(68,68,68)" d="M 11500,9000 L 12501,4499 11500,4499 11500,9000 11500,9000 Z"/>
        </g>
       </g>
       <g class="com.sun.star.drawing.CustomShape">
        <g id="id11">
         <rect class="BoundingBox" stroke="none" fill="none" x="11499" y="2999" width="2003" height="1503"/>
         <path fill="rgb(68,68,68)" stroke="none" d="M 12500,4500 L 11500,4500 11500,3000 13500,3000 13500,4500 12500,4500 Z"/>
         <path fill="none" stroke="rgb(68,68,68)" d="M 12500,4500 L 11500,4500 11500,3000 13500,3000 13500,4500 12500,4500 Z"/>
        </g>
       </g>
      </g>
      <g class="Group">
       <g class="com.sun.star.drawing.CustomShape">
        <g id="id12">
         <rect class="BoundingBox" stroke="none" fill="none" x="6099" y="4099" width="504" height="504"/>
         <path fill="rgb(68,68,68)" stroke="none" d="M 6601,4350 C 6601,4394 6589,4438 6567,4476 6545,4514 6514,4545 6476,4567 6438,4589 6394,4601 6351,4601 6307,4601 6263,4589 6225,4567 6187,4545 6156,4514 6134,4476 6112,4438 6100,4394 6100,4350 6100,4307 6112,4263 6134,4225 6156,4187 6187,4156 6225,4134 6263,4112 6307,4100 6351,4100 6394,4100 6438,4112 6476,4134 6514,4156 6545,4187 6567,4225 6589,4263 6601,4307 6601,4350 L 6601,4350 Z"/>
         <path fill="none" stroke="rgb(68,68,68)" d="M 6601,4350 C 6601,4394 6589,4438 6567,4476 6545,4514 6514,4545 6476,4567 6438,4589 6394,4601 6351,4601 6307,4601 6263,4589 6225,4567 6187,4545 6156,4514 6134,4476 6112,4438 6100,4394 6100,4350 6100,4307 6112,4263 6134,4225 6156,4187 6187,4156 6225,4134 6263,4112 6307,4100 6351,4100 6394,4100 6438,4112 6476,4134 6514,4156 6545,4187 6567,4225 6589,4263 6601,4307 6601,4350 Z"/>
        </g>
       </g>
       <g class="com.sun.star.drawing.CustomShape">
        <g id="id13">
         <rect class="BoundingBox" stroke="none" fill="none" x="4499" y="4099" width="1803" height="503"/>
         <path fill="rgb(68,68,68)" stroke="none" d="M 5400,4600 L 4500,4600 4500,4100 6300,4100 6300,4600 5400,4600 Z"/>
         <path fill="none" stroke="rgb(68,68,68)" d="M 5400,4600 L 4500,4600 4500,4100 6300,4100 6300,4600 5400,4600 Z"/>
        </g>
       </g>
       <g class="com.sun.star.drawing.CustomShape">
        <g id="id14">
         <rect class="BoundingBox" stroke="none" fill="none" x="4300" y="4100" width="504" height="504"/>
         <path fill="rgb(68,68,68)" stroke="none" d="M 4802,4352 C 4802,4395 4790,4439 4768,4477 4746,4515 4715,4546 4677,4568 4639,4590 4595,4602 4552,4602 4508,4602 4464,4590 4426,4568 4388,4546 4357,4515 4335,4477 4313,4439 4301,4395 4301,4352 4301,4308 4313,4264 4335,4226 4357,4188 4388,4157 4426,4135 4464,4113 4508,4101 4552,4101 4595,4101 4639,4113 4677,4135 4715,4157 4746,4188 4768,4226 4790,4264 4802,4308 4802,4352 L 4802,4352 Z"/>
         <path fill="none" stroke="rgb(68,68,68)" d="M 4802,4352 C 4802,4395 4790,4439 4768,4477 4746,4515 4715,4546 4677,4568 4639,4590 4595,4602 4552,4602 4508,4602 4464,4590 4426,4568 4388,4546 4357,4515 4335,4477 4313,4439 4301,4395 4301,4352 4301,4308 4313,4264 4335,4226 4357,4188 4388,4157 4426,4135 4464,4113 4508,4101 4552,4101 4595,4101 4639,4113 4677,4135 4715,4157 4746,4188 4768,4226 4790,4264 4802,4308 4802,4352 Z"/>
        </g>
       </g>
      </g>
      <g class="Group">
       <g class="com.sun.star.drawing.CustomShape">
        <g id="id15">
         <rect class="BoundingBox" stroke="none" fill="none" x="6100" y="5700" width="504" height="504"/>
         <path fill="rgb(68,68,68)" stroke="none" d="M 6602,5951 C 6602,5995 6590,6039 6568,6077 6546,6115 6515,6146 6477,6168 6439,6190 6395,6202 6351,6202 6308,6202 6264,6190 6226,6168 6188,6146 6157,6115 6135,6077 6113,6039 6101,5995 6101,5951 6101,5908 6113,5864 6135,5826 6157,5788 6188,5757 6226,5735 6264,5713 6308,5701 6351,5701 6395,5701 6439,5713 6477,5735 6515,5757 6546,5788 6568,5826 6590,5864 6602,5908 6602,5951 L 6602,5951 Z"/>
         <path fill="none" stroke="rgb(68,68,68)" d="M 6602,5951 C 6602,5995 6590,6039 6568,6077 6546,6115 6515,6146 6477,6168 6439,6190 6395,6202 6351,6202 6308,6202 6264,6190 6226,6168 6188,6146 6157,6115 6135,6077 6113,6039 6101,5995 6101,5951 6101,5908 6113,5864 6135,5826 6157,5788 6188,5757 6226,5735 6264,5713 6308,5701 6351,5701 6395,5701 6439,5713 6477,5735 6515,5757 6546,5788 6568,5826 6590,5864 6602,5908 6602,5951 Z"/>
        </g>
       </g>
       <g class="com.sun.star.drawing.CustomShape">
        <g id="id16">
         <rect class="BoundingBox" stroke="none" fill="none" x="4500" y="5700" width="1803" height="503"/>
         <path fill="rgb(68,68,68)" stroke="none" d="M 5401,6201 L 4501,6201 4501,5701 6301,5701 6301,6201 5401,6201 Z"/>
         <path fill="none" stroke="rgb(68,68,68)" d="M 5401,6201 L 4501,6201 4501,5701 6301,5701 6301,6201 5401,6201 Z"/>
        </g>
       </g>
       <g class="com.sun.star.drawing.CustomShape">
        <g id="id17">
         <rect class="BoundingBox" stroke="none" fill="none" x="4301" y="5701" width="504" height="504"/>
         <path fill="rgb(68,68,68)" stroke="none" d="M 4803,5952 C 4803,5996 4791,6040 4769,6078 4747,6116 4716,6147 4678,6169 4640,6191 4596,6203 4552,6203 4509,6203 4465,6191 4427,6169 4389,6147 4358,6116 4336,6078 4314,6040 4302,5996 4302,5952 4302,5909 4314,5865 4336,5827 4358,5789 4389,5758 4427,5736 4465,5714 4509,5702 4552,5702 4596,5702 4640,5714 4678,5736 4716,5758 4747,5789 4769,5827 4791,5865 4803,5909 4803,5952 L 4803,5952 Z"/>
         <path fill="none" stroke="rgb(68,68,68)" d="M 4803,5952 C 4803,5996 4791,6040 4769,6078 4747,6116 4716,6147 4678,6169 4640,6191 4596,6203 4552,6203 4509,6203 4465,6191 4427,6169 4389,6147 4358,6116 4336,6078 4314,6040 4302,5996 4302,5952 4302,5909 4314,5865 4336,5827 4358,5789 4389,5758 4427,5736 4465,5714 4509,5702 4552,5702 4596,5702 4640,5714 4678,5736 4716,5758 4747,5789 4769,5827 4791,5865 4803,5909 4803,5952 Z"/>
        </g>
       </g>
      </g>
      <g class="Group">
       <g class="com.sun.star.drawing.CustomShape">
        <g id="id18">
         <rect class="BoundingBox" stroke="none" fill="none" x="6101" y="7301" width="504" height="504"/>
         <path fill="rgb(68,68,68)" stroke="none" d="M 6603,7553 C 6603,7596 6591,7640 6569,7678 6547,7716 6516,7747 6478,7769 6440,7791 6396,7803 6352,7803 6309,7803 6265,7791 6227,7769 6189,7747 6158,7716 6136,7678 6114,7640 6102,7596 6102,7553 6102,7509 6114,7465 6136,7427 6158,7389 6189,7358 6227,7336 6265,7314 6309,7302 6352,7302 6396,7302 6440,7314 6478,7336 6516,7358 6547,7389 6569,7427 6591,7465 6603,7509 6603,7553 L 6603,7553 Z"/>
         <path fill="none" stroke="rgb(68,68,68)" d="M 6603,7553 C 6603,7596 6591,7640 6569,7678 6547,7716 6516,7747 6478,7769 6440,7791 6396,7803 6352,7803 6309,7803 6265,7791 6227,7769 6189,7747 6158,7716 6136,7678 6114,7640 6102,7596 6102,7553 6102,7509 6114,7465 6136,7427 6158,7389 6189,7358 6227,7336 6265,7314 6309,7302 6352,7302 6396,7302 6440,7314 6478,7336 6516,7358 6547,7389 6569,7427 6591,7465 6603,7509 6603,7553 Z"/>
        </g>
       </g>
       <g class="com.sun.star.drawing.CustomShape">
        <g id="id19">
         <rect class="BoundingBox" stroke="none" fill="none" x="4501" y="7301" width="1803" height="503"/>
         <path fill="rgb(68,68,68)" stroke="none" d="M 5402,7802 L 4502,7802 4502,7302 6302,7302 6302,7802 5402,7802 Z"/>
         <path fill="none" stroke="rgb(68,68,68)" d="M 5402,7802 L 4502,7802 4502,7302 6302,7302 6302,7802 5402,7802 Z"/>
        </g>
       </g>
       <g class="com.sun.star.drawing.CustomShape">
        <g id="id20">
         <rect class="BoundingBox" stroke="none" fill="none" x="4302" y="7302" width="504" height="504"/>
         <path fill="rgb(68,68,68)" stroke="none" d="M 4804,7553 C 4804,7597 4792,7641 4770,7679 4748,7717 4717,7748 4679,7770 4641,7792 4597,7804 4553,7804 4510,7804 4466,7792 4428,7770 4390,7748 4359,7717 4337,7679 4315,7641 4303,7597 4303,7553 4303,7510 4315,7466 4337,7428 4359,7390 4390,7359 4428,7337 4466,7315 4510,7303 4553,7303 4597,7303 4641,7315 4679,7337 4717,7359 4748,7390 4770,7428 4792,7466 4804,7510 4804,7553 L 4804,7553 Z"/>
         <path fill="none" stroke="rgb(68,68,68)" d="M 4804,7553 C 4804,7597 4792,7641 4770,7679 4748,7717 4717,7748 4679,7770 4641,7792 4597,7804 4553,7804 4510,7804 4466,7792 4428,7770 4390,7748 4359,7717 4337,7679 4315,7641 4303,7597 4303,7553 4303,7510 4315,7466 4337,7428 4359,7390 4390,7359 4428,7337 4466,7315 4510,7303 4553,7303 4597,7303 4641,7315 4679,7337 4717,7359 4748,7390 4770,7428 4792,7466 4804,7510 4804,7553 Z"/>
        </g>
       </g>
      </g>
      <g class="Group">
       <g class="com.sun.star.drawing.CustomShape">
        <g id="id21">
         <rect class="BoundingBox" stroke="none" fill="none" x="6102" y="8902" width="504" height="504"/>
         <path fill="rgb(68,68,68)" stroke="none" d="M 6604,9153 C 6604,9197 6592,9241 6570,9279 6548,9317 6517,9348 6479,9370 6441,9392 6397,9404 6354,9404 6310,9404 6266,9392 6228,9370 6190,9348 6159,9317 6137,9279 6115,9241 6103,9197 6103,9153 6103,9110 6115,9066 6137,9028 6159,8990 6190,8959 6228,8937 6266,8915 6310,8903 6354,8903 6397,8903 6441,8915 6479,8937 6517,8959 6548,8990 6570,9028 6592,9066 6604,9110 6604,9153 L 6604,9153 Z"/>
         <path fill="none" stroke="rgb(68,68,68)" d="M 6604,9153 C 6604,9197 6592,9241 6570,9279 6548,9317 6517,9348 6479,9370 6441,9392 6397,9404 6354,9404 6310,9404 6266,9392 6228,9370 6190,9348 6159,9317 6137,9279 6115,9241 6103,9197 6103,9153 6103,9110 6115,9066 6137,9028 6159,8990 6190,8959 6228,8937 6266,8915 6310,8903 6354,8903 6397,8903 6441,8915 6479,8937 6517,8959 6548,8990 6570,9028 6592,9066 6604,9110 6604,9153 Z"/>
        </g>
       </g>
       <g class="com.sun.star.drawing.CustomShape">
        <g id="id22">
         <rect class="BoundingBox" stroke="none" fill="none" x="4502" y="8902" width="1803" height="503"/>
         <path fill="rgb(68,68,68)" stroke="none" d="M 5403,9403 L 4503,9403 4503,8903 6303,8903 6303,9403 5403,9403 Z"/>
         <path fill="none" stroke="rgb(68,68,68)" d="M 5403,9403 L 4503,9403 4503,8903 6303,8903 6303,9403 5403,9403 Z"/>
        </g>
       </g>
       <g class="com.sun.star.drawing.CustomShape">
        <g id="id23">
         <rect class="BoundingBox" stroke="none" fill="none" x="4303" y="8903" width="504" height="504"/>
         <path fill="rgb(68,68,68)" stroke="none" d="M 4805,9155 C 4805,9198 4793,9242 4771,9280 4749,9318 4718,9349 4680,9371 4642,9393 4598,9405 4555,9405 4511,9405 4467,9393 4429,9371 4391,9349 4360,9318 4338,9280 4316,9242 4304,9198 4304,9155 4304,9111 4316,9067 4338,9029 4360,8991 4391,8960 4429,8938 4467,8916 4511,8904 4555,8904 4598,8904 4642,8916 4680,8938 4718,8960 4749,8991 4771,9029 4793,9067 4805,9111 4805,9155 L 4805,9155 Z"/>
         <path fill="none" stroke="rgb(68,68,68)" d="M 4805,9155 C 4805,9198 4793,9242 4771,9280 4749,9318 4718,9349 4680,9371 4642,9393 4598,9405 4555,9405 4511,9405 4467,9393 4429,9371 4391,9349 4360,9318 4338,9280 4316,9242 4304,9198 4304,9155 4304,9111 4316,9067 4338,9029 4360,8991 4391,8960 4429,8938 4467,8916 4511,8904 4555,8904 4598,8904 4642,8916 4680,8938 4718,8960 4749,8991 4771,9029 4793,9067 4805,9111 4805,9155 Z"/>
        </g>
       </g>
      </g>
      <g class="Group">
       <g class="com.sun.star.drawing.CustomShape">
        <g id="id24">
         <rect class="BoundingBox" stroke="none" fill="none" x="6103" y="10503" width="504" height="504"/>
         <path fill="rgb(68,68,68)" stroke="none" d="M 6605,10754 C 6605,10798 6593,10842 6571,10880 6549,10918 6518,10949 6480,10971 6442,10993 6398,11005 6354,11005 6311,11005 6267,10993 6229,10971 6191,10949 6160,10918 6138,10880 6116,10842 6104,10798 6104,10754 6104,10711 6116,10667 6138,10629 6160,10591 6191,10560 6229,10538 6267,10516 6311,10504 6354,10504 6398,10504 6442,10516 6480,10538 6518,10560 6549,10591 6571,10629 6593,10667 6605,10711 6605,10754 L 6605,10754 Z"/>
         <path fill="none" stroke="rgb(68,68,68)" d="M 6605,10754 C 6605,10798 6593,10842 6571,10880 6549,10918 6518,10949 6480,10971 6442,10993 6398,11005 6354,11005 6311,11005 6267,10993 6229,10971 6191,10949 6160,10918 6138,10880 6116,10842 6104,10798 6104,10754 6104,10711 6116,10667 6138,10629 6160,10591 6191,10560 6229,10538 6267,10516 6311,10504 6354,10504 6398,10504 6442,10516 6480,10538 6518,10560 6549,10591 6571,10629 6593,10667 6605,10711 6605,10754 Z"/>
        </g>
       </g>
       <g class="com.sun.star.drawing.CustomShape">
        <g id="id25">
         <rect class="BoundingBox" stroke="none" fill="none" x="4503" y="10503" width="1803" height="503"/>
         <path fill="rgb(68,68,68)" stroke="none" d="M 5404,11004 L 4504,11004 4504,10504 6304,10504 6304,11004 5404,11004 Z"/>
         <path fill="none" stroke="rgb(68,68,68)" d="M 5404,11004 L 4504,11004 4504,10504 6304,10504 6304,11004 5404,11004 Z"/>
        </g>
       </g>
       <g class="com.sun.star.drawing.CustomShape">
        <g id="id26">
         <rect class="BoundingBox" stroke="none" fill="none" x="4304" y="10504" width="504" height="504"/>
         <path fill="rgb(68,68,68)" stroke="none" d="M 4806,10756 C 4806,10799 4794,10843 4772,10881 4750,10919 4719,10950 4681,10972 4643,10994 4599,11006 4555,11006 4512,11006 4468,10994 4430,10972 4392,10950 4361,10919 4339,10881 4317,10843 4305,10799 4305,10756 4305,10712 4317,10668 4339,10630 4361,10592 4392,10561 4430,10539 4468,10517 4512,10505 4555,10505 4599,10505 4643,10517 4681,10539 4719,10561 4750,10592 4772,10630 4794,10668 4806,10712 4806,10756 L 4806,10756 Z"/>
         <path fill="none" stroke="rgb(68,68,68)" d="M 4806,10756 C 4806,10799 4794,10843 4772,10881 4750,10919 4719,10950 4681,10972 4643,10994 4599,11006 4555,11006 4512,11006 4468,10994 4430,10972 4392,10950 4361,10919 4339,10881 4317,10843 4305,10799 4305,10756 4305,10712 4317,10668 4339,10630 4361,10592 4392,10561 4430,10539 4468,10517 4512,10505 4555,10505 4599,10505 4643,10517 4681,10539 4719,10561 4750,10592 4772,10630 4794,10668 4806,10712 4806,10756 Z"/>
        </g>
       </g>
      </g>
      <g class="Group">
       <g class="com.sun.star.drawing.CustomShape">
        <g id="id27">
         <rect class="BoundingBox" stroke="none" fill="none" x="6104" y="12104" width="504" height="504"/>
         <path fill="rgb(68,68,68)" stroke="none" d="M 6606,12356 C 6606,12399 6594,12443 6572,12481 6550,12519 6519,12550 6481,12572 6443,12594 6399,12606 6356,12606 6312,12606 6268,12594 6230,12572 6192,12550 6161,12519 6139,12481 6117,12443 6105,12399 6105,12356 6105,12312 6117,12268 6139,12230 6161,12192 6192,12161 6230,12139 6268,12117 6312,12105 6356,12105 6399,12105 6443,12117 6481,12139 6519,12161 6550,12192 6572,12230 6594,12268 6606,12312 6606,12356 L 6606,12356 Z"/>
         <path fill="none" stroke="rgb(68,68,68)" d="M 6606,12356 C 6606,12399 6594,12443 6572,12481 6550,12519 6519,12550 6481,12572 6443,12594 6399,12606 6356,12606 6312,12606 6268,12594 6230,12572 6192,12550 6161,12519 6139,12481 6117,12443 6105,12399 6105,12356 6105,12312 6117,12268 6139,12230 6161,12192 6192,12161 6230,12139 6268,12117 6312,12105 6356,12105 6399,12105 6443,12117 6481,12139 6519,12161 6550,12192 6572,12230 6594,12268 6606,12312 6606,12356 Z"/>
        </g>
       </g>
       <g class="com.sun.star.drawing.CustomShape">
        <g id="id28">
         <rect class="BoundingBox" stroke="none" fill="none" x="4504" y="12104" width="1803" height="503"/>
         <path fill="rgb(68,68,68)" stroke="none" d="M 5405,12605 L 4505,12605 4505,12105 6305,12105 6305,12605 5405,12605 Z"/>
         <path fill="none" stroke="rgb(68,68,68)" d="M 5405,12605 L 4505,12605 4505,12105 6305,12105 6305,12605 5405,12605 Z"/>
        </g>
       </g>
       <g class="com.sun.star.drawing.CustomShape">
        <g id="id29">
         <rect class="BoundingBox" stroke="none" fill="none" x="4305" y="12105" width="504" height="504"/>
         <path fill="rgb(68,68,68)" stroke="none" d="M 4807,12357 C 4807,12400 4795,12444 4773,12482 4751,12520 4720,12551 4682,12573 4644,12595 4600,12607 4556,12607 4513,12607 4469,12595 4431,12573 4393,12551 4362,12520 4340,12482 4318,12444 4306,12400 4306,12357 4306,12313 4318,12269 4340,12231 4362,12193 4393,12162 4431,12140 4469,12118 4513,12106 4556,12106 4600,12106 4644,12118 4682,12140 4720,12162 4751,12193 4773,12231 4795,12269 4807,12313 4807,12357 L 4807,12357 Z"/>
         <path fill="none" stroke="rgb(68,68,68)" d="M 4807,12357 C 4807,12400 4795,12444 4773,12482 4751,12520 4720,12551 4682,12573 4644,12595 4600,12607 4556,12607 4513,12607 4469,12595 4431,12573 4393,12551 4362,12520 4340,12482 4318,12444 4306,12400 4306,12357 4306,12313 4318,12269 4340,12231 4362,12193 4393,12162 4431,12140 4469,12118 4513,12106 4556,12106 4600,12106 4644,12118 4682,12140 4720,12162 4751,12193 4773,12231 4795,12269 4807,12313 4807,12357 Z"/>
        </g>
       </g>
      </g>
      <g class="Group">
       <g class="com.sun.star.drawing.CustomShape">
        <g id="id30">
         <rect class="BoundingBox" stroke="none" fill="none" x="6105" y="13705" width="504" height="504"/>
         <path fill="rgb(68,68,68)" stroke="none" d="M 6607,13957 C 6607,14000 6595,14044 6573,14082 6551,14120 6520,14151 6482,14173 6444,14195 6400,14207 6357,14207 6313,14207 6269,14195 6231,14173 6193,14151 6162,14120 6140,14082 6118,14044 6106,14000 6106,13957 6106,13913 6118,13869 6140,13831 6162,13793 6193,13762 6231,13740 6269,13718 6313,13706 6357,13706 6400,13706 6444,13718 6482,13740 6520,13762 6551,13793 6573,13831 6595,13869 6607,13913 6607,13957 L 6607,13957 Z"/>
         <path fill="none" stroke="rgb(68,68,68)" d="M 6607,13957 C 6607,14000 6595,14044 6573,14082 6551,14120 6520,14151 6482,14173 6444,14195 6400,14207 6357,14207 6313,14207 6269,14195 6231,14173 6193,14151 6162,14120 6140,14082 6118,14044 6106,14000 6106,13957 6106,13913 6118,13869 6140,13831 6162,13793 6193,13762 6231,13740 6269,13718 6313,13706 6357,13706 6400,13706 6444,13718 6482,13740 6520,13762 6551,13793 6573,13831 6595,13869 6607,13913 6607,13957 Z"/>
        </g>
       </g>
       <g class="com.sun.star.drawing.CustomShape">
        <g id="id31">
         <rect class="BoundingBox" stroke="none" fill="none" x="4505" y="13705" width="1803" height="503"/>
         <path fill="rgb(68,68,68)" stroke="none" d="M 5406,14206 L 4506,14206 4506,13706 6306,13706 6306,14206 5406,14206 Z"/>
         <path fill="none" stroke="rgb(68,68,68)" d="M 5406,14206 L 4506,14206 4506,13706 6306,13706 6306,14206 5406,14206 Z"/>
        </g>
       </g>
       <g class="com.sun.star.drawing.CustomShape">
        <g id="id32">
         <rect class="BoundingBox" stroke="none" fill="none" x="4306" y="13706" width="504" height="504"/>
         <path fill="rgb(68,68,68)" stroke="none" d="M 4808,13957 C 4808,14001 4796,14045 4774,14083 4752,14121 4721,14152 4683,14174 4645,14196 4601,14208 4558,14208 4514,14208 4470,14196 4432,14174 4394,14152 4363,14121 4341,14083 4319,14045 4307,14001 4307,13957 4307,13914 4319,13870 4341,13832 4363,13794 4394,13763 4432,13741 4470,13719 4514,13707 4558,13707 4601,13707 4645,13719 4683,13741 4721,13763 4752,13794 4774,13832 4796,13870 4808,13914 4808,13957 L 4808,13957 Z"/>
         <path fill="none" stroke="rgb(68,68,68)" d="M 4808,13957 C 4808,14001 4796,14045 4774,14083 4752,14121 4721,14152 4683,14174 4645,14196 4601,14208 4558,14208 4514,14208 4470,14196 4432,14174 4394,14152 4363,14121 4341,14083 4319,14045 4307,14001 4307,13957 4307,13914 4319,13870 4341,13832 4363,13794 4394,13763 4432,13741 4470,13719 4514,13707 4558,13707 4601,13707 4645,13719 4683,13741 4721,13763 4752,13794 4774,13832 4796,13870 4808,13914 4808,13957 Z"/>
        </g>
       </g>
      </g>
      <g class="Group">
       <g class="com.sun.star.drawing.CustomShape">
        <g id="id33">
         <rect class="BoundingBox" stroke="none" fill="none" x="6106" y="15306" width="504" height="504"/>
         <path fill="rgb(68,68,68)" stroke="none" d="M 6608,15558 C 6608,15601 6596,15645 6574,15683 6552,15721 6521,15752 6483,15774 6445,15796 6401,15808 6357,15808 6314,15808 6270,15796 6232,15774 6194,15752 6163,15721 6141,15683 6119,15645 6107,15601 6107,15558 6107,15514 6119,15470 6141,15432 6163,15394 6194,15363 6232,15341 6270,15319 6314,15307 6357,15307 6401,15307 6445,15319 6483,15341 6521,15363 6552,15394 6574,15432 6596,15470 6608,15514 6608,15558 L 6608,15558 Z"/>
         <path fill="none" stroke="rgb(68,68,68)" d="M 6608,15558 C 6608,15601 6596,15645 6574,15683 6552,15721 6521,15752 6483,15774 6445,15796 6401,15808 6357,15808 6314,15808 6270,15796 6232,15774 6194,15752 6163,15721 6141,15683 6119,15645 6107,15601 6107,15558 6107,15514 6119,15470 6141,15432 6163,15394 6194,15363 6232,15341 6270,15319 6314,15307 6357,15307 6401,15307 6445,15319 6483,15341 6521,15363 6552,15394 6574,15432 6596,15470 6608,15514 6608,15558 Z"/>
        </g>
       </g>
       <g class="com.sun.star.drawing.CustomShape">
        <g id="id34">
         <rect class="BoundingBox" stroke="none" fill="none" x="4506" y="15306" width="1803" height="503"/>
         <path fill="rgb(68,68,68)" stroke="none" d="M 5407,15807 L 4507,15807 4507,15307 6307,15307 6307,15807 5407,15807 Z"/>
         <path fill="none" stroke="rgb(68,68,68)" d="M 5407,15807 L 4507,15807 4507,15307 6307,15307 6307,15807 5407,15807 Z"/>
        </g>
       </g>
       <g class="com.sun.star.drawing.CustomShape">
        <g id="id35">
         <rect class="BoundingBox" stroke="none" fill="none" x="4307" y="15307" width="504" height="504"/>
         <path fill="rgb(68,68,68)" stroke="none" d="M 4809,15558 C 4809,15602 4797,15646 4775,15684 4753,15722 4722,15753 4684,15775 4646,15797 4602,15809 4558,15809 4515,15809 4471,15797 4433,15775 4395,15753 4364,15722 4342,15684 4320,15646 4308,15602 4308,15558 4308,15515 4320,15471 4342,15433 4364,15395 4395,15364 4433,15342 4471,15320 4515,15308 4558,15308 4602,15308 4646,15320 4684,15342 4722,15364 4753,15395 4775,15433 4797,15471 4809,15515 4809,15558 L 4809,15558 Z"/>
         <path fill="none" stroke="rgb(68,68,68)" d="M 4809,15558 C 4809,15602 4797,15646 4775,15684 4753,15722 4722,15753 4684,15775 4646,15797 4602,15809 4558,15809 4515,15809 4471,15797 4433,15775 4395,15753 4364,15722 4342,15684 4320,15646 4308,15602 4308,15558 4308,15515 4320,15471 4342,15433 4364,15395 4395,15364 4433,15342 4471,15320 4515,15308 4558,15308 4602,15308 4646,15320 4684,15342 4722,15364 4753,15395 4775,15433 4797,15471 4809,15515 4809,15558 Z"/>
        </g>
       </g>
      </g>
      <g class="com.sun.star.drawing.CustomShape">
       <g id="id36">
        <rect class="BoundingBox" stroke="none" fill="none" x="8399" y="11799" width="4353" height="1003"/>
        <path fill="rgb(218,36,26)" stroke="none" d="M 10575,12800 L 8400,12800 8400,11800 12750,11800 12750,12800 10575,12800 Z"/>
        <path fill="none" stroke="rgb(218,36,26)" d="M 10575,12800 L 8400,12800 8400,11800 12750,11800 12750,12800 10575,12800 Z"/>
       </g>
      </g>
      <g class="com.sun.star.drawing.CustomShape">
       <g id="id37">
        <rect class="BoundingBox" stroke="none" fill="none" x="8399" y="13299" width="3003" height="1003"/>
        <path fill="rgb(218,36,26)" stroke="none" d="M 9900,14300 L 8400,14300 8400,13300 11400,13300 11400,14300 9900,14300 Z"/>
        <path fill="none" stroke="rgb(218,36,26)" d="M 9900,14300 L 8400,14300 8400,13300 11400,13300 11400,14300 9900,14300 Z"/>
       </g>
      </g>
      <g class="com.sun.star.drawing.CustomShape">
       <g id="id38">
        <rect class="BoundingBox" stroke="none" fill="none" x="8399" y="14799" width="5253" height="1003"/>
        <path fill="rgb(218,36,26)" stroke="none" d="M 11025,15800 L 8400,15800 8400,14800 13650,14800 13650,15800 11025,15800 Z"/>
        <path fill="none" stroke="rgb(218,36,26)" d="M 11025,15800 L 8400,15800 8400,14800 13650,14800 13650,15800 11025,15800 Z"/>
       </g>
      </g>
     </g>
    </g>
   </g>
  </g>
 </g>
</svg>